<svg width="40" height="40" viewBox="0 0 40 40" fill="none" xmlns="http://www.w3.org/2000/svg">
<path d="M40 20C40 31.0457 31.0457 40 20 40C8.9543 40 0 31.0457 0 20C0 8.9543 8.9543 0 20 0C31.0457 0 40 8.9543 40 20Z" fill="white"/>
<path d="M26.6698 22.4172C25.4825 22.9328 24.3614 23.1362 23.2971 23.1362C22.2327 23.1362 21.14 22.9186 20.1419 22.6159V31.8401H17.2611V21.5941C15.1703 20.8278 13.2592 20.3169 10.9886 21.4238V18.4342C14.0539 17.4267 16.6462 18.3917 18.9782 19.2715C21.6793 20.2886 23.8174 21.0927 26.6698 19.2857V22.4172ZM17.105 14.456C17.105 10.9839 19.9338 8.15516 23.4059 8.15516C24.158 8.15516 24.8865 8.28761 25.5676 8.53359V11.807C24.9622 11.3103 24.2053 11.036 23.4059 11.036C21.5184 11.036 19.9858 12.5733 19.9858 14.456V17.947C19.631 17.8193 19.2715 17.6868 18.9026 17.5497C18.3207 17.3321 17.7247 17.1097 17.105 16.9111V14.4607V14.456ZM19.9953 0C8.94986 0 0 8.95459 0 20C0 31.0454 8.95459 40 20 40C31.0454 40 40 31.0454 40 20C40 8.95459 31.0407 0 19.9953 0Z" fill="#F26449"/>
</svg>
